<svg version="1.1" xmlns="http://www.w3.org/2000/svg" xmlns:xlink="http://www.w3.org/1999/xlink" width="48" height="48"><defs><linearGradient x1="16.12518" y1="9.82523" x2="62.65158" y2="68.95148" gradientUnits="userSpaceOnUse" id="color-1"><stop offset="0" stop-color="#000000" stop-opacity="0.08"></stop><stop offset="1" stop-color="#000000" stop-opacity="0"></stop></linearGradient><filter id="dropshadow-base"><feColorMatrix type="matrix" values="0 0 0 0 0  0 0 0 0 0  0 0 0 0 0  0 0 0 .8 0"></feColorMatrix> <feOffset dx="0" dy="1"></feOffset> <feGaussianBlur stdDeviation="1"></feGaussianBlur> <feComposite in="SourceGraphic"></feComposite></filter><filter id="dropshadow-banner" x="-10%" y="-10%" width="120%" height="130%"><feColorMatrix type="matrix" values="0 0 0 0 0  0 0 0 0 0  0 0 0 0 0  0 0 0 .4 0"></feColorMatrix> <feOffset dx="0" dy="1"></feOffset> <feGaussianBlur stdDeviation="0.5"></feGaussianBlur> <feComposite in="SourceGraphic"></feComposite></filter></defs><g fill="none" fill-rule="nonzero" stroke="none" stroke-width="none" stroke-linecap="butt" stroke-linejoin="miter" stroke-miterlimit="10" stroke-dasharray="" stroke-dashoffset="0" font-family="none" font-weight="none" font-size="none" text-anchor="none" style="mix-blend-mode: normal"><path d="M7,43c-1.10457,0 -2,-0.89543 -2,-2v-34c0,-1.10457 0.89543,-2 2,-2h34c1.10457,0 2,0.89543 2,2v34c0,1.10457 -0.89543,2 -2,2z" id="base 1 5 1 1 1" fill="#f5f5f5" stroke-width="1"></path><path d="M16.12518,38.17474v-28.34952h15.74966l11.12516,11.12516v20.04962c0,1.10457 -0.89543,2 -2,2l-20.04956,0z" fill="url(#color-1)" stroke-width="1"></path><path d="M31.87479,16.12512v15.74967h-3.14981v-12.5997h-3.14996v12.5997h-3.14996v-15.74967zM19.27498,12.9752v22.04959h12.59985v3.14996h-15.74967v-28.34952h15.74967v3.14996z" id="path4231 1 1" fill="none" stroke-width="0"></path><g id="svg11222 2"><g id="layer1 1"><g id="g4163 1"><g id="g4177 1"><g id="g887 1"><g id="g4229 1" fill="#ff005b" stroke-width="1"><path d="M22.42505,16.12512v15.74967h3.14996v-12.5997h3.14996v12.5997h3.14981v-15.74967z" id="path4231 1"></path></g><g id="g4233 1" fill="#4051ae" stroke-width="0.94638"><path d="M31.87483,12.9752v-3.14996h-15.74967v28.34952h15.74967v-3.14996h-12.59985v-22.04959z" id="path4235 1"></path></g></g></g></g></g></g><path d="M2,24c0,-12.15026 9.84974,-22 22,-22c12.15026,0 22,9.84974 22,22c0,12.15026 -9.84974,22 -22,22c-12.15026,0 -22,-9.84974 -22,-22z" id="base 1 1 1" fill="none" stroke-width="1"></path><g id="svg11222 1 1" fill="#000000" stroke-width="1" font-family="Roboto, sans-serif" font-weight="400" font-size="14" text-anchor="start"><g id="layer1 1 1"><g id="g4163 1 1"><g id="g4177 1 1"><g id="g887 1 1"><g id="g4229 1 1"></g><g id="g4233 1 1"></g></g></g></g></g></g><rect x="2" y="2" width="44" height="22" fill="none" stroke-width="1"></rect><path d="M2,24v-22h44v22z" fill="none" stroke-width="1"></path><path d="M2,24v-22h44v22z" fill="none" stroke-width="1"></path><path d="M2,24v-22h44v22z" fill="none" stroke-width="1"></path><path d="M5,7c0,-1.10457 0.89543,-2 2,-2h34c1.10457,0 2,0.89543 2,2v17h-38z" id="base 1 2 1" fill-opacity="0.1" fill="#000000" stroke-width="1"></path><path d="M2,24v-22h44v22z" fill="none" stroke-width="1"></path></g></svg>